<svg width="87" height="18" viewBox="0 0 87 18" fill="none" xmlns="http://www.w3.org/2000/svg">
<path fill-rule="evenodd" clip-rule="evenodd" d="M19.6 11.7482C19.7297 11.8804 19.9009 11.9533 20.0815 11.9487C20.262 11.9533 20.4333 11.8849 20.5629 11.7482C20.6879 11.6115 20.7527 11.4338 20.7481 11.2469V9.77957H21.7526C23.0997 9.77957 24.0441 8.92741 24.0441 7.66511C24.0441 6.41193 23.1275 5.56888 21.7526 5.56888H20.0907C19.9102 5.56432 19.7343 5.63268 19.6047 5.76939C19.4797 5.90154 19.4102 6.07927 19.4149 6.27066V11.2469C19.4102 11.4338 19.4751 11.6161 19.6 11.7482ZM21.7618 8.62225H20.748V6.73108H21.7618C22.3173 6.73108 22.6877 7.10476 22.6877 7.66983C22.7016 7.92502 22.609 8.17566 22.4331 8.35794C22.2525 8.54022 22.0118 8.63592 21.7618 8.62225Z" fill="#193151"/>
<path fill-rule="evenodd" clip-rule="evenodd" d="M29.6221 11.524C29.7528 11.7472 30.0002 11.8794 30.2663 11.8748C30.6148 11.8753 30.9023 11.6086 30.9198 11.2688C30.9104 11.0637 30.8357 10.8677 30.705 10.7082L29.7155 9.34569L29.8555 9.24999C30.3938 8.86677 30.7059 8.2506 30.691 7.60035C30.691 6.35628 29.7201 5.51778 28.2638 5.51778H26.504C26.3119 5.51006 26.1251 5.58088 25.9887 5.7132C25.8523 5.84552 25.7785 6.02738 25.7852 6.21501V11.1776C25.7852 11.5576 26.1008 11.8657 26.49 11.8657C26.8793 11.8657 27.1949 11.5576 27.1949 11.1776V9.71025H28.3852L29.6221 11.524ZM28.273 8.55735H27.1995V6.6753H28.273C28.8565 6.6753 29.2533 7.04897 29.2533 7.60949C29.2671 7.86639 29.1679 8.11682 28.9807 8.29786C28.7935 8.47889 28.536 8.5733 28.273 8.55735Z" fill="#193151"/>
<path fill-rule="evenodd" clip-rule="evenodd" d="M31.9371 8.67065C31.9371 10.4829 33.4403 11.8985 35.3651 11.8985C37.2991 11.8985 38.8115 10.4829 38.8115 8.67065C38.8115 6.85841 37.2854 5.44275 35.3651 5.44275C33.4449 5.44275 31.9371 6.85841 31.9371 8.67065ZM33.9374 7.22878C34.3176 6.8489 34.839 6.64751 35.3742 6.6739C35.9085 6.65036 36.4283 6.85268 36.8078 7.23192C37.1874 7.61115 37.392 8.13277 37.3723 8.67059C37.3723 9.84646 36.5657 10.6673 35.3742 10.6673C34.8379 10.698 34.3138 10.4981 33.9327 10.1172C33.5515 9.73632 33.3491 9.21042 33.376 8.67059C33.3535 8.13197 33.5572 7.60866 33.9374 7.22878Z" fill="#193151"/>
<path d="M42.5035 11.8977C42.3146 11.9004 42.1328 11.8264 42.0005 11.6931C41.8682 11.5598 41.7969 11.3788 41.8033 11.1922V6.66856H40.319C39.9782 6.66856 39.7029 6.39188 39.7029 6.05526C39.7029 5.71402 39.9782 5.44196 40.319 5.44196H44.688C45.0288 5.44196 45.3042 5.71863 45.3042 6.05526C45.3042 6.39188 45.0288 6.66856 44.688 6.66856H43.2083V11.1876C43.213 11.3767 43.143 11.5611 43.0076 11.6949C42.8723 11.8332 42.6902 11.9024 42.4988 11.8977H42.5035Z" fill="#193151"/>
<path fill-rule="evenodd" clip-rule="evenodd" d="M45.6859 8.67065C45.6859 10.4829 47.189 11.8985 49.1139 11.8985C51.0433 11.8985 52.5602 10.4829 52.5602 8.67065C52.5602 6.85841 51.0341 5.44275 49.1139 5.44275C47.1936 5.44275 45.6859 6.85841 45.6859 8.67065ZM47.6861 7.22878C48.0663 6.8489 48.5878 6.64751 49.1229 6.6739C49.6572 6.65036 50.1771 6.85268 50.5566 7.23192C50.9361 7.61115 51.1407 8.13277 51.121 8.67059C51.121 9.84646 50.3144 10.6673 49.1229 10.6673C48.5866 10.698 48.0625 10.4981 47.6814 10.1172C47.3002 9.73632 47.0979 9.21042 47.1247 8.67059C47.1022 8.13197 47.306 7.60866 47.6861 7.22878Z" fill="#193151"/>
<path d="M5.55771 15.2018L1.38944 17.6251L1.38944 12.7785L5.55771 15.2018Z" fill="#F54703"/>
<path d="M1.9902 3.32116C0.656719 5.77805 1.18683 8.81929 3.27477 10.6908C3.50665 10.9021 3.86837 10.8975 4.09097 10.6862C4.99683 9.83815 5.28252 8.52522 4.80977 7.38273C4.29091 6.19786 4.59964 4.8168 5.57495 3.9598C6.56854 3.08442 7.99736 2.89023 9.19217 3.46818C10.3765 4.02428 11.0721 5.26576 10.9219 6.55571C10.7469 7.84807 9.77345 8.89333 8.48728 9.17C7.26381 9.45696 6.33236 10.4413 6.12218 11.6694C6.0758 11.9681 6.28449 12.2483 6.59983 12.3035C9.77649 12.8548 12.8929 11.0813 13.9085 8.15001C14.9287 5.20951 13.5375 2.00712 10.6483 0.628757C7.53196 -0.850684 3.59476 0.376057 1.9902 3.32116Z" fill="url(#paint0_linear_5_214)"/>
<path d="M56.6063 11.8197C56.1573 11.8197 55.7313 11.7443 55.3283 11.5936C54.9311 11.4371 54.6231 11.2371 54.4043 10.9936L54.6029 10.6632C54.8102 10.8777 55.0922 11.0603 55.4492 11.211C55.8119 11.3559 56.1947 11.4284 56.5977 11.4284C57.0007 11.4284 57.3288 11.3762 57.5821 11.2719C57.8412 11.1617 58.0311 11.0168 58.152 10.8371C58.2787 10.6574 58.342 10.4574 58.342 10.2371C58.342 9.97623 58.2729 9.76754 58.1348 9.61102C57.9966 9.4545 57.8153 9.32987 57.5907 9.23711C57.3662 9.14436 57.1216 9.0661 56.8567 9.00234C56.5919 8.93857 56.3242 8.8719 56.0536 8.80234C55.7831 8.72698 55.5355 8.63133 55.311 8.51539C55.0865 8.39945 54.9051 8.24293 54.767 8.04583C54.6346 7.84294 54.5684 7.58207 54.5684 7.26324C54.5684 6.97339 54.6432 6.70672 54.7929 6.46325C54.9426 6.21978 55.1757 6.02268 55.4923 5.87196C55.809 5.72123 56.2148 5.64587 56.7099 5.64587C57.0438 5.64587 57.372 5.69515 57.6944 5.7937C58.0225 5.89225 58.3017 6.02558 58.532 6.19369L58.3679 6.55021C58.1146 6.3763 57.8412 6.24876 57.5476 6.1676C57.2597 6.08065 56.9805 6.03717 56.7099 6.03717C56.3242 6.03717 56.0047 6.09224 55.7514 6.20239C55.4981 6.31253 55.311 6.46035 55.1901 6.64586C55.0692 6.82556 55.0088 7.02846 55.0088 7.25454C55.0088 7.51541 55.075 7.7241 55.2074 7.88062C55.3455 8.03714 55.5269 8.16177 55.7514 8.25452C55.9759 8.34727 56.2235 8.42553 56.494 8.4893C56.7646 8.55307 57.0323 8.62263 57.2971 8.69799C57.562 8.76756 57.8066 8.86031 58.0311 8.97625C58.2557 9.09219 58.437 9.24871 58.5752 9.44581C58.7133 9.6429 58.7824 9.89797 58.7824 10.211C58.7824 10.4951 58.7047 10.7617 58.5493 11.011C58.3938 11.2545 58.1549 11.4516 57.8325 11.6023C57.5159 11.7472 57.1072 11.8197 56.6063 11.8197Z" fill="#F54703"/>
<path d="M62.8443 11.8197C62.3952 11.8197 61.9779 11.7443 61.5921 11.5936C61.2122 11.4371 60.8783 11.2197 60.5904 10.9414C60.3084 10.6574 60.0896 10.3298 59.9342 9.95884C59.7787 9.58204 59.701 9.17335 59.701 8.73278C59.701 8.2922 59.7787 7.88641 59.9342 7.51541C60.0896 7.1386 60.3084 6.81107 60.5904 6.53281C60.8783 6.24876 61.2122 6.03137 61.5921 5.88065C61.9779 5.72413 62.3952 5.64587 62.8443 5.64587C63.2933 5.64587 63.7078 5.72413 64.0878 5.88065C64.4735 6.03137 64.8074 6.24586 65.0895 6.52412C65.3715 6.80237 65.5903 7.12991 65.7457 7.50671C65.9069 7.87772 65.9875 8.28641 65.9875 8.73278C65.9875 9.17914 65.9069 9.59073 65.7457 9.96754C65.5903 10.3385 65.3715 10.6632 65.0895 10.9414C64.8074 11.2197 64.4735 11.4371 64.0878 11.5936C63.7078 11.7443 63.2933 11.8197 62.8443 11.8197ZM62.8443 11.411C63.23 11.411 63.5869 11.3443 63.915 11.211C64.2432 11.0777 64.5282 10.8893 64.7699 10.6458C65.0117 10.4023 65.1988 10.1183 65.3312 9.79363C65.4694 9.46899 65.5385 9.11538 65.5385 8.73278C65.5385 8.34438 65.4694 7.99076 65.3312 7.67192C65.1988 7.34729 65.0117 7.06324 64.7699 6.81977C64.5282 6.57629 64.2432 6.38789 63.915 6.25456C63.5869 6.12123 63.23 6.05456 62.8443 6.05456C62.4586 6.05456 62.1016 6.12123 61.7735 6.25456C61.4453 6.38789 61.1575 6.57629 60.9099 6.81977C60.6682 7.06324 60.4782 7.34729 60.34 7.67192C60.2076 7.99076 60.1414 8.34438 60.1414 8.73278C60.1414 9.11538 60.2076 9.46899 60.34 9.79363C60.4782 10.1183 60.6682 10.4023 60.9099 10.6458C61.1575 10.8893 61.4453 11.0777 61.7735 11.211C62.1016 11.3443 62.4586 11.411 62.8443 11.411Z" fill="#F54703"/>
<path d="M69.8811 11.8197C69.1327 11.8197 68.5426 11.5994 68.1109 11.1588C67.6791 10.7182 67.4632 10.0632 67.4632 9.19364V5.68935H67.9036V9.17625C67.9036 9.93565 68.0763 10.498 68.4217 10.8632C68.7672 11.2284 69.2565 11.411 69.8898 11.411C70.5173 11.411 71.0037 11.2284 71.3491 10.8632C71.6945 10.498 71.8672 9.93565 71.8672 9.17625V5.68935H72.3077V9.19364C72.3077 10.0632 72.0918 10.7182 71.66 11.1588C71.2282 11.5994 70.6353 11.8197 69.8811 11.8197Z" fill="#F54703"/>
<path d="M74.3626 11.7762V5.68935H74.7339L79.0429 11.2284H78.8443V5.68935H79.2847V11.7762H78.9221L74.6044 6.23717H74.803V11.7762H74.3626Z" fill="#F54703"/>
<path d="M81.3957 11.7762V5.68935H83.7877C84.4267 5.68935 84.988 5.81978 85.4716 6.08065C85.9551 6.34151 86.3293 6.70093 86.5941 7.15889C86.8647 7.61685 87 8.14148 87 8.73278C87 9.32407 86.8647 9.8487 86.5941 10.3067C86.3293 10.7646 85.9551 11.124 85.4716 11.3849C84.988 11.6458 84.4267 11.7762 83.7877 11.7762H81.3957ZM81.8361 11.3762H83.7531C84.3231 11.3762 84.8181 11.2632 85.2384 11.0371C85.6587 10.811 85.9839 10.5009 86.2142 10.1067C86.4445 9.70667 86.5596 9.24871 86.5596 8.73278C86.5596 8.21684 86.4445 7.76178 86.2142 7.36758C85.9839 6.96759 85.6587 6.65455 85.2384 6.42847C84.8181 6.20239 84.3231 6.08934 83.7531 6.08934H81.8361V11.3762Z" fill="#F54703"/>
<defs>
<linearGradient id="paint0_linear_5_214" x1="10.6254" y1="14.3754" x2="15.9882" y2="3.22159" gradientUnits="userSpaceOnUse">
<stop stop-color="#F54703"/>
<stop offset="1" stop-color="#FAC902"/>
</linearGradient>
</defs>
</svg>
